<?xml version="1.0" encoding="utf-8"?>
<!DOCTYPE svg PUBLIC "-//W3C//DTD SVG 1.1//EN" "http://www.w3.org/Graphics/SVG/1.1/DTD/svg11.dtd">
<svg version="1.1" id="Layer_1" xmlns="http://www.w3.org/2000/svg" xmlns:xlink="http://www.w3.org/1999/xlink" x="0px" y="0px"
	 viewBox="0 0 110.3 109.1" enable-background="new 0 0 110.3 109.1" xml:space="preserve">
<g>
	<path fill="#EE4C2C" d="M87.0,31.7l-8.1,8.1c13.3,13.3,13.3,34.7,0,47.8c-13.3,13.3-34.7,13.3-47.8,0
		c-13.3-13.3-13.3-34.7,0-47.8l0,0l21.1-21.1l3-3l0,0v-15.9l-31.8,31.8c-17.7,17.7-17.7,46.3,0,64c17.7,17.7,46.3,17.7,63.7,0
		C104.7,77.9,104.7,49.5,87.0,31.7z"
        transform-origin="center"
        transform="rotate(180)"
    />
	<circle fill="#EE4C2C" cx="103" cy="24" r="5.9"/>
	<circle fill="#EE4C2C" cx="103" cy="68" r="5.9"/>
</g>
</svg>
